<svg xmlns="http://www.w3.org/2000/svg" version="1.1" xmlns:xlink="http://www.w3.org/1999/xlink" xmlns:svgjs="http://svgjs.dev/svgjs" width="8000" height="5500" viewBox="0 0 1500 1500"><rect width="1500" height="1500" fill="#2ccfb6"></rect><g transform="matrix(0.6666666666666666,0,0,0.6666666666666666,249.39393939393938,447.943698525438)"><svg viewBox="0 0 396 247" data-background-color="#2ccfb6" preserveAspectRatio="xMidYMid meet" height="935" width="1500" xmlns="http://www.w3.org/2000/svg" xmlns:xlink="http://www.w3.org/1999/xlink"><g id="tight-bounds" transform="matrix(1,0,0,1,0.2400000000000091,-0.09999999999999432)"><svg viewBox="0 0 395.52 247.2" height="247.2" width="395.52"><g><svg></svg></g><g><svg viewBox="0 0 395.52 247.2" height="247.2" width="395.52"><g transform="matrix(1,0,0,1,92.24312988505747,47.215199999999996)"><svg viewBox="0 0 211.03374022988504 152.7696" height="152.7696" width="211.03374022988504"><g><svg viewBox="0 0 211.03374022988504 152.7696" height="152.7696" width="211.03374022988504"><g><svg viewBox="0 0 211.03374022988504 152.7696" height="152.7696" width="211.03374022988504"><g><svg viewBox="0 0 211.03374022988504 152.7696" height="152.7696" width="211.03374022988504"><g id="textblocktransform"><svg viewBox="0 0 211.03374022988504 152.7696" height="152.7696" width="211.03374022988504" id="textblock"><g><svg viewBox="0 0 211.03374022988504 152.7696" height="152.7696" width="211.03374022988504"><g transform="matrix(1,0,0,1,0,0)"><svg width="211.03374022988504" viewBox="2 -34.8 48.07222220195499 34.8" height="152.7696" data-palette-color="#ffffff"><g class="wordmark-text-0" data-fill-palette-color="primary" id="text-0"><path d="M7.85 0L2.2 0Q2 0 2-0.25L2-0.25 2.1-34.6Q2.1-34.8 2.3-34.8L2.3-34.8 8.4-34.8Q8.6-34.8 8.75-34.6L8.75-34.6 13.3-28 17.85-34.6Q18-34.8 18.2-34.8L18.2-34.8 24.35-34.8Q24.55-34.8 24.55-34.6L24.55-34.6 24.65-0.25Q24.65 0 24.45 0L24.45 0 18.8 0Q18.6 0 18.6-0.25L18.6-0.25 18.55-25.75 13.3-18.15 8.1-25.75 8.05-0.25Q8.05 0 7.85 0L7.85 0ZM34.7 0L29.05 0Q28.85 0 28.85-0.25L28.85-0.25 28.95-34.55Q28.95-34.8 29.15-34.8L29.15-34.8 34.75-34.8Q34.95-34.8 34.95-34.55L34.95-34.55 34.95-22.7 42.8-34.6Q42.95-34.8 43.15-34.8L43.15-34.8 48.9-34.8Q49.1-34.8 49-34.6L49-34.6 40.35-20.8 50.05-0.2Q50.15 0 49.8 0L49.8 0 43.7 0Q43.45 0 43.4-0.2L43.4-0.2 36.65-14.9 34.9-12.15 34.9-0.25Q34.9 0 34.7 0L34.7 0Z" fill="#ffffff" data-fill-palette-color="primary"></path></g></svg></g></svg></g></svg></g></svg></g><g></g></svg></g></svg></g></svg></g><g><path d="M158.886 11.15A105.517 105.517 0 0 1 236.634 11.15L222.857 11.15A91.74 91.74 0 0 0 172.663 11.15L158.886 11.15M158.886 236.05A105.517 105.517 0 0 0 236.634 236.05L222.857 236.05A91.74 91.74 0 0 1 172.663 236.05L158.886 236.05" fill="#ffffff" stroke="transparent" data-fill-palette-color="tertiary"></path></g></svg></g><defs></defs></svg><rect width="395.52" height="247.2" fill="none" stroke="none" visibility="hidden"></rect></g></svg></g></svg>